<?xml version="1.0" encoding="UTF-8"?>
<svg version="1.1" xmlns="http://www.w3.org/2000/svg" width="72" height="72">
<path d="M0 0 C1.61358398 -0.01836914 1.61358398 -0.01836914 3.25976562 -0.03710938 C4.28650391 -0.03904297 5.31324219 -0.04097656 6.37109375 -0.04296875 C7.79119751 -0.04913208 7.79119751 -0.04913208 9.23999023 -0.05541992 C11.5625 0.1875 11.5625 0.1875 13.5625 2.1875 C13.78955078 4.06689453 13.78955078 4.06689453 13.7578125 6.3203125 C13.75136719 7.12597656 13.74492188 7.93164062 13.73828125 8.76171875 C13.72152344 9.60347656 13.70476563 10.44523437 13.6875 11.3125 C13.67847656 12.16199219 13.66945312 13.01148438 13.66015625 13.88671875 C13.63655647 15.98709884 13.60068483 18.08733444 13.5625 20.1875 C11.9125 20.1875 10.2625 20.1875 8.5625 20.1875 C8.5625 15.2375 8.5625 10.2875 8.5625 5.1875 C3.2825 5.1875 -1.9975 5.1875 -7.4375 5.1875 C-7.4375 10.1375 -7.4375 15.0875 -7.4375 20.1875 C-12.3875 20.1875 -17.3375 20.1875 -22.4375 20.1875 C-22.4375 32.0675 -22.4375 43.9475 -22.4375 56.1875 C-24.0875 56.1875 -25.7375 56.1875 -27.4375 56.1875 C-27.46214705 50.50919922 -27.48033462 44.83092931 -27.49243164 39.15258789 C-27.49747256 37.21931415 -27.50430519 35.28604424 -27.51293945 33.3527832 C-27.52501565 30.58023128 -27.53073057 27.80772959 -27.53515625 25.03515625 C-27.54031754 24.16536636 -27.54547882 23.29557648 -27.55079651 22.39942932 C-27.55099185 20.32844186 -27.49958168 18.25755676 -27.4375 16.1875 C-26.4375 15.1875 -26.4375 15.1875 -23.27734375 15.08984375 C-21.34568359 15.10724609 -21.34568359 15.10724609 -19.375 15.125 C-18.08464844 15.13402344 -16.79429688 15.14304687 -15.46484375 15.15234375 C-14.46582031 15.16394531 -13.46679688 15.17554688 -12.4375 15.1875 C-12.44910156 14.18847656 -12.46070313 13.18945312 -12.47265625 12.16015625 C-12.48167969 10.86980469 -12.49070312 9.57945313 -12.5 8.25 C-12.51160156 6.96222656 -12.52320313 5.67445312 -12.53515625 4.34765625 C-12.32877016 -2.33099767 -5.33031139 0.00318228 0 0 Z " fill="#000000" transform="translate(32.4375,7.8125)"/>
<path d="M0 0 C3.12578143 1.6720747 5.39281175 3.7856235 7 7 C6.94273425 8.9384456 6.85505982 10.87605658 6.75 12.8125 C6.59105249 17.87948891 6.59105249 17.87948891 9.5625 21.9375 C10.366875 22.618125 11.17125 23.29875 12 24 C11.8125 26.8125 11.8125 26.8125 11 29 C7.38372441 28.66360227 5.47409632 28.43458829 2.75 25.9375 C-0.40465102 23.71490496 -1.22633523 23.8517014 -4.9375 24.0625 C-8.69172787 24.23620308 -10.64256769 24.05827693 -13.5625 21.625 C-17.3057723 17.59378368 -17.39037018 14.90519941 -17.359375 9.55078125 C-16.78039966 5.44131496 -15.00085071 3.78650423 -12 1 C-8.27533151 -0.86233425 -4.05504687 -0.57130829 0 0 Z M-6 6 C-7.65 7.65 -9.3 9.3 -11 11 C-10.36078035 13.47627099 -10.36078035 13.47627099 -9 16 C-6.47627099 17.36078035 -6.47627099 17.36078035 -4 18 C-2.35 16.35 -0.7 14.7 1 13 C0.36078035 10.52372901 0.36078035 10.52372901 -1 8 C-3.52372901 6.63921965 -3.52372901 6.63921965 -6 6 Z " fill="#000000" transform="translate(47,36)"/>
<path d="M0 0 C2.64 0 5.28 0 8 0 C8 2.64 8 5.28 8 8 C5.36 8 2.72 8 0 8 C0 5.36 0 2.72 0 0 Z " fill="#000000" transform="translate(14,56)"/>
<path d="M0 0 C2.64 0 5.28 0 8 0 C8 2.64 8 5.28 8 8 C5.36 8 2.72 8 0 8 C0 5.36 0 2.72 0 0 Z " fill="#000000" transform="translate(14,44)"/>
<path d="M0 0 C2.64 0 5.28 0 8 0 C8 2.64 8 5.28 8 8 C5.36 8 2.72 8 0 8 C0 5.36 0 2.72 0 0 Z " fill="#000000" transform="translate(14,32)"/>
<path d="M0 0 C2.64 0 5.28 0 8 0 C8 2.64 8 5.28 8 8 C5.36 8 2.72 8 0 8 C0 5.36 0 2.72 0 0 Z " fill="#000000" transform="translate(29,14)"/>
</svg>
