<svg xmlns="http://www.w3.org/2000/svg" width="202" height="36" viewBox="0 0 202 36">
    <path data-name="Path 2589" d="M230.19 68.94h1.66l2.549 5.881 2.549-5.881h1.66v7.8H237.1v-4.9h-.053l-2.1 4.9h-1.107l-2.088-4.9h-.052v4.9h-1.505v-7.8z" transform="translate(-136.353 -40.853)" style="fill:#0060ff"/>
    <path data-name="Path 2590" d="m268.941 68.94 3.01 7.8h-1.627l-.518-1.407h-3.32l-.518 1.407h-1.628l3-7.8h1.595zm.363 5.013-1.154-3.132-1.15 3.132z" transform="translate(-156.581 -40.853)" style="fill:#0060ff"/>
    <path data-name="Path 2591" d="M296.52 68.94h1.505l3.581 5.331h.053V68.94h1.505v7.8h-1.505l-3.581-5.331h-.053v5.331h-1.505z" transform="translate(-175.642 -40.853)" style="fill:#0060ff"/>
    <path data-name="Path 2592" d="m330.931 68.94 3.01 7.8h-1.627l-.518-1.407h-3.32l-.518 1.407h-1.628l3-7.8h1.595zm.363 5.013-1.154-3.132-1.154 3.132z" transform="translate(-193.301 -40.853)" style="fill:#0060ff"/>
    <path data-name="Path 2593" d="M356.63 72.683a3.92 3.92 0 0 1 4.046-4.013 3.588 3.588 0 0 1 3.153 1.693l-1.089.759a2.4 2.4 0 0 0-2.04-1.022 2.605 2.605 0 0 0 0 5.208 1.925 1.925 0 0 0 2.056-1.66h-1.868v-1.266h3.332a3.541 3.541 0 0 1-3.585 4.307 3.907 3.907 0 0 1-4-4.013z" transform="translate(-211.249 -40.693)" style="fill:#0060ff"/>
    <path data-name="Path 2594" d="M389.634 68.94h4.417v1.387h-2.912v1.815h2.451V73.5h-2.451v1.86h3.01v1.387h-4.519v-7.8z" transform="translate(-230.795 -40.853)" style="fill:#0060ff"/>
    <path data-name="Path 2595" d="M417.552 74.161h-1.167v2.582h-1.505v-7.8h2.737a2.55 2.55 0 0 1 2.757 2.647 2.37 2.37 0 0 1-1.44 2.321l1.823 2.835h-1.6l-1.6-2.582zm-.09-1.309c.824 0 1.387-.351 1.387-1.264s-.563-1.264-1.387-1.264h-1.077v2.529z" transform="translate(-245.766 -40.853)" style="fill:#0060ff"/>
    <path data-name="Path 2596" d="M97.44 16.08h5.616v16.886H97.44z" transform="translate(-57.718 -9.532)" style="fill:#192a50"/>
    <path data-name="Path 2597" d="M119.82 15.612h5.616v1.982a5.637 5.637 0 0 1 4.8-2.3c3.41 0 6.269 2.113 6.269 7.272V32.5h-5.616v-8.967c0-1.754-.844-3.279-2.761-3.279s-2.7 1.525-2.7 3.279V32.5h-5.608V15.612z" transform="translate(-70.976 -9.064)" style="fill:#192a50"/>
    <path data-name="Path 2598" d="m166.95 27.948 4.417-1.2a2.166 2.166 0 0 0 2.113 1.721c.779 0 1.428-.359 1.428-1.073 0-.359-.2-.812-1.073-1.073l-2.468-.91c-2.794-.975-3.993-2.826-3.993-5 0-3.247 2.957-5.131 6.367-5.131s5.714 1.884 6.269 4.707l-4.385 1.073c-.359-1.3-1.171-1.493-1.656-1.493a1.03 1.03 0 0 0-1.171.942c0 .392.228.844 1.2 1.105l2.3.844c1.623.518 4.123 1.786 4.123 4.935 0 3.41-2.924 5.425-6.852 5.425-3.475 0-6.106-1.558-6.624-4.87z" transform="translate(-98.893 -9.058)" style="fill:#192a50"/>
    <path data-name="Path 2599" d="M206.59 15.606h5.616V17.2h.1a5.8 5.8 0 0 1 4.678-1.917c3.769 0 7.99 2.859 7.99 8.769s-4.221 8.769-7.99 8.769A5.8 5.8 0 0 1 212.3 30.9h-.1v14.068h-5.61zm9.189 12.244a3.617 3.617 0 0 0 3.671-3.8 3.689 3.689 0 1 0-7.374 0 3.588 3.588 0 0 0 3.703 3.8z" transform="translate(-122.376 -9.079)" style="fill:#192a50"/>
    <path data-name="Path 2600" d="M256.264 24.082a8.453 8.453 0 0 1 8.671-8.8c4.385 0 9.45 2.957 8.28 10.943H261.75c.681 1.362 2.141 2.047 4.091 2.047a6.427 6.427 0 0 0 3.834-1.105l2.468 2.631a8.6 8.6 0 0 1-6.917 3.018c-4.739 0-8.965-3.181-8.965-8.736zm12.016-1.819a3.178 3.178 0 0 0-3.279-2.3 3.526 3.526 0 0 0-3.442 2.3z" transform="translate(-151.798 -9.058)" style="fill:#192a50"/>
    <path data-name="Path 2601" d="M302.84 24.016c0-5.714 4.515-8.736 9.059-8.736a8.279 8.279 0 0 1 7.3 4.156l-4.054 2.664a4.129 4.129 0 0 0-3.247-1.786 3.527 3.527 0 0 0-3.54 3.7 3.584 3.584 0 0 0 3.54 3.769A4.129 4.129 0 0 0 315.145 26l4.058 2.663a8.415 8.415 0 0 1-7.3 4.156c-4.548 0-9.059-3.018-9.059-8.8z" transform="translate(-179.389 -9.058)" style="fill:#192a50"/>
    <path data-name="Path 2602" d="M350.155 21.046v-6.82h-2.565V9.809h2.565V5.49h5.616v4.319h3.573v4.417h-3.573V20.2c0 .779.453 1.754 2.048 1.754a5.317 5.317 0 0 0 1.591-.261v4.254c-.649.714-2.174.942-3.442.942-3.377 0-5.812-1.623-5.812-5.845z" transform="translate(-205.896 -3.251)" style="fill:#192a50"/>
    <path data-name="Path 2603" d="M383.41 16.08h5.616v16.886h-5.616z" transform="translate(-227.111 -9.532)" style="fill:#192a50"/>
    <path data-name="Path 2604" d="M403.79 24.049c0-5.747 4.58-8.769 9.026-8.769s8.993 3.022 8.993 8.769-4.58 8.769-8.993 8.769-9.026-3.018-9.026-8.769zm9.026 3.736a3.5 3.5 0 0 0 3.475-3.736 3.5 3.5 0 1 0-6.983 0 3.511 3.511 0 0 0 3.508 3.736z" transform="translate(-239.199 -9.058)" style="fill:#192a50"/>
    <path data-name="Path 2605" d="M454.59 15.612h5.616v1.982a5.637 5.637 0 0 1 4.8-2.3c3.41 0 6.269 2.113 6.269 7.272V32.5h-5.616v-8.967c0-1.754-.844-3.279-2.761-3.279s-2.7 1.525-2.7 3.279V32.5h-5.608V15.612z" transform="translate(-269.28 -9.064)" style="fill:#192a50"/>
    <rect data-name="Rectangle 3071" width="32.221" height="32.191" rx="5" transform="translate(0 3.809)" style="fill:#0060ff"/>
    <rect data-name="Rectangle 3072" width="9.695" height="22.445" rx="4.847" transform="translate(17.322 8.653)" style="fill:#fff"/>
    <rect data-name="Rectangle 3073" width="9.695" height="13.688" rx="4.847" transform="translate(5.208 13.046)" style="fill:#00e5ff"/>
    <circle data-name="Ellipse 411" cx="2.81" cy="2.81" r="2.81" transform="translate(39.722)" style="fill:#192a50"/>
    <circle data-name="Ellipse 412" cx="2.81" cy="2.81" r="2.81" transform="translate(156.299)" style="fill:#192a50"/>
</svg>
