<svg xmlns="http://www.w3.org/2000/svg" width="20.789" height="14.42" viewBox="0 0 20.789 14.42">
    <g>
        <g>
            <path d="M19.949 235.318H.84a.843.843 0 0 0 0 1.682h19.11a.843.843 0 0 0 0-1.685z" transform="translate(0 6.367) translate(0 -235.318)"/>
        </g>
    </g>
    <g>
        <g>
            <path d="M19.949 78.439H.84a.843.843 0 0 0 0 1.685h19.11a.843.843 0 0 0 0-1.685z" transform="translate(0 -78.439)"/>
        </g>
    </g>
    <g>
        <g>
            <path d="M19.949 392.2H.84a.843.843 0 0 0 0 1.685h19.11a.843.843 0 0 0 0-1.685z" transform="translate(0 12.734) translate(0 -392.197)"/>
        </g>
    </g>
</svg>
