<svg xmlns="http://www.w3.org/2000/svg" width="24" height="24" viewBox="0 0 24 24">
    <path data-name="Path 2302" d="M0 0h24v24H0z" style="fill:none"/>
    <path data-name="Path 2303" d="M12 22a2.006 2.006 0 0 0 2-2h-4a2.006 2.006 0 0 0 2 2zm6-6v-5c0-3.07-1.63-5.64-4.5-6.32V4a1.5 1.5 0 0 0-3 0v.68C7.64 5.36 6 7.92 6 11v5l-2 2v1h16v-1zm-2 1H8v-6c0-2.48 1.51-4.5 4-4.5s4 2.02 4 4.5zM7.58 4.08 6.15 2.65a10.425 10.425 0 0 0-4.12 7.85h2a8.446 8.446 0 0 1 3.55-6.42zm12.39 6.42h2a10.489 10.489 0 0 0-4.12-7.85l-1.42 1.43a8.5 8.5 0 0 1 3.54 6.42z" style="stroke:#fff;stroke-width:.5px"/>
</svg>
